Coordinates
version=1
nRows=6
nColumns=36
inDegrees=yes

Units are S.I. units (second, meters, Newtons, ...)
If the header above contains a line with 'inDegrees', this indicates whether rotational values are in degrees (yes) or radians (no).

endheader
time	pelvis_tilt	pelvis_list	pelvis_rotation	pelvis_tx	pelvis_ty	pelvis_tz	hip_flexion_r	hip_adduction_r	hip_rotation_r	knee_angle_r	knee_angle_r_beta	ankle_angle_r	subtalar_angle_r	mtp_angle_r	hip_flexion_l	hip_adduction_l	hip_rotation_l	knee_angle_l	knee_angle_l_beta	ankle_angle_l	subtalar_angle_l	mtp_angle_l	lumbar_extension	lumbar_bending	lumbar_rotation	arm_flex_r	arm_add_r	arm_rot_r	elbow_flex_r	pro_sup_r	arm_flex_l	arm_add_l	arm_rot_l	elbow_flex_l	pro_sup_l
      1.48333330	     -2.52981641	      0.20852564	     -0.82778192	     -0.84882115	      1.26595405	     -0.09558326	     -3.41449538	      0.96958099	      0.93409927	      0.78971855	      0.01378319	      4.50444572	    -10.63253738	     -7.49999987	     -2.95893605	      0.84761981	      4.39381142	      1.47543035	      0.02575112	      7.16352937	     -5.49230749	     -7.49999987	    -15.84097095	      1.71384539	      1.35360034	      9.30194922	    -10.05364619	     21.38923541	     23.08152699	     68.73074546	      6.69230591	    -12.06001245	     18.13890356	     24.73333565	     75.16078640
      1.48750000	     -2.59363700	      0.26724753	     -0.70229962	     -0.84644089	      1.26612695	     -0.09969089	     -3.16405880	      0.90842858	      0.93478759	      0.87181992	      0.01521613	      4.30527992	    -10.54439577	     -7.49999987	     -2.65595789	      0.92962740	      4.42500432	      1.67179871	      0.02917839	      7.02386892	     -5.44321356	     -7.49999987	    -16.23613949	      1.71428282	      1.24196480	      9.25274927	    -10.26683213	     21.36676757	     23.00455773	     68.74391342	      6.71417937	    -12.28473457	     18.13130386	     24.65494949	     75.18118204
      1.49166670	     -2.77021066	      0.27193007	     -0.66719889	     -0.84775014	      1.26602464	     -0.09866493	     -2.76031743	      0.88178241	      1.06543036	      0.99374702	      0.01734416	      4.20053552	    -10.64809292	     -7.49999987	     -2.18910250	      0.97198678	      4.53563848	      1.96793476	      0.03434694	      6.96155096	     -5.84809643	     -7.49999987	    -16.47331523	      1.76148168	      1.15220461	      9.23851637	    -10.54787328	     21.78538995	     23.03091111	     66.81206666	      6.58203534	    -12.67228647	     19.04732048	     24.80442811	     71.54790913
      1.49583330	     -3.06212251	      0.31905937	     -0.67339264	     -0.85205240	      1.26183451	     -0.09559906	     -2.21405076	      0.83063406	      1.12550532	      1.19444577	      0.02084701	      3.88097351	    -11.13042996	     -7.49999987	     -1.51765528	      1.02815378	      4.43539800	      2.41058132	      0.04207258	      7.04482608	     -5.89402606	     -7.49999987	    -16.58456647	      1.70258225	      1.13471437	      9.23827326	    -10.83397691	     22.25359386	     23.01208705	     67.01725947	      6.55255176	    -13.11029288	     19.56034509	     24.68735295	     71.62271234
      1.50000000	     -3.43037773	      0.35156725	     -0.80917666	     -0.85139357	      1.26417831	     -0.09708126	     -1.51702239	      0.75585365	      0.88727353	      1.52142453	      0.02655387	      3.81627870	    -10.99590854	     -7.49999987	     -0.82620530	      1.06656648	      4.48626693	      2.79061680	      0.04870545	      6.92984686	     -6.07368616	     -7.49999987	    -16.57826391	      1.66385948	      1.14823013	      9.27678154	    -11.07840933	     23.36398341	     22.59141409	     66.84574572	      6.48561025	    -13.59059962	     20.88844680	     24.49319656	     70.77419892
      1.50416670	     -3.77604109	      0.34907621	     -0.84071130	     -0.85086822	      1.25511522	     -0.09782770	     -0.87964468	      0.74376607	      1.03362028	      1.84055890	      0.03212381	      3.59967617	    -11.59463956	     -7.49999987	     -0.12240363	      1.08527419	      4.50140262	      3.39213074	      0.05920385	      7.36022229	     -6.01670013	     -7.49999987	    -16.59357207	      1.66100350	      1.12259595	      9.00914707	    -11.40306637	     23.51876879	     22.81296957	     66.86278325	      6.18038489	    -14.06367794	     21.07347411	     24.74061423	     70.45371663
